<svg xmlns="http://www.w3.org/2000/svg" width="39" height="39" fill="none" viewBox="0 0 39 39"><path stroke="#febc11" stroke-linecap="round" stroke-linejoin="round" stroke-width="2.308" d="M12.869 4.007a6.63 6.63 0 0 1 6.63 6.63v18.025a7.588 7.588 0 1 1-15.15-.638c-1.58-1.696-2.576-5.015-2.576-7.784 0-3.773 1.85-7.442 4.504-8.884a6.63 6.63 0 0 1 6.592-7.35"/><path stroke="#febc11" stroke-linecap="round" stroke-linejoin="round" stroke-width="2.308" d="M9.78 15.862c-.973-.222-3.179-1.668-3.512-4.489M13.845 23.302c3.977-.444 5.553-4.64 5.655-6.348M6.378 24.046c-.99.782-1.78 2.554-2.036 3.974M26.13 4.007a6.63 6.63 0 0 0-6.63 6.63v18.025a7.588 7.588 0 1 0 15.15-.638c1.58-1.696 2.576-5.015 2.576-7.784 0-3.773-1.85-7.442-4.504-8.884q.039-.354.039-.719a6.63 6.63 0 0 0-6.63-6.63"/><path stroke="#febc11" stroke-linecap="round" stroke-linejoin="round" stroke-width="2.308" d="M29.219 15.862c.973-.222 3.18-1.668 3.512-4.489M25.154 23.302c-3.976-.444-5.552-4.64-5.655-6.348M32.622 24.046c.99.782 1.78 2.554 2.036 3.974"/></svg>