<svg width="39" height="39" viewBox="0 0 39 39" fill="none" xmlns="http://www.w3.org/2000/svg">
<path d="M33.8651 7.49129C33.0351 6.66092 32.0496 6.00221 30.965 5.5528C29.8804 5.10338 28.7179 4.87207 27.5438 4.87207C26.3698 4.87207 25.2072 5.10338 24.1226 5.5528C23.038 6.00221 22.0526 6.66092 21.2226 7.49129L19.5001 9.21379L17.7776 7.49129C16.1011 5.81479 13.8273 4.87294 11.4563 4.87294C9.08539 4.87294 6.81157 5.81479 5.13507 7.49129C3.45857 9.16779 2.51672 11.4416 2.51672 13.8125C2.51672 16.1835 3.45857 18.4573 5.13507 20.1338L6.85757 21.8563L19.5001 34.4988L32.1426 21.8563L33.8651 20.1338C34.6954 19.3038 35.3542 18.3184 35.8036 17.2337C36.253 16.1491 36.4843 14.9866 36.4843 13.8125C36.4843 12.6385 36.253 11.476 35.8036 10.3913C35.3542 9.30671 34.6954 8.32126 33.8651 7.49129Z" stroke="#FEBC11" stroke-width="2.22857" stroke-linecap="round" stroke-linejoin="round"/>
</svg>
