<svg xmlns="http://www.w3.org/2000/svg" width="32" height="30" fill="none" viewBox="0 0 32 30"><path fill="hsla(0, 0%, 100%, 0.75)" d="M15.674 0c.052.035.145.222.18.285l9.262 17.032 4.486 8.249c.795 1.462 1.624 2.948 2.398 4.42-.576-.03-1.288-.003-1.875-.002l-3.509.003-7.57.01c-.005-.472-.076-1.081-.142-1.55-.333-2.357-1.229-4.665-2.751-6.5-1.064-1.283-2.526-2.43-4.156-2.848-.37-.095-.68-.115-1.056-.15.177-.065.35-.134.533-.182.296-.086.676-.138.943-.23a5 5 0 0 0-1.04.072c-.615.122-1.009.27-1.369.79 1.062-.263 1.962.909 2.469 1.707 1.436 2.264 2.115 6.295 1.616 8.89-.453.01-.974-.002-1.431-.002l-2.866-.004-5.949-.006-2.411-.003C1.064 29.98.349 29.956 0 29.99c.211-.461.512-1.003.751-1.46L2.02 26.1l3.812-7.286zM9.085 16.794c.282-.59.86-2.26 1.72-1.755.974.57 1.556 2.372 1.67 3.443.355-.003 1.11.029 1.446.096.91.116 1.771.354 2.565.826-.77-1.88-1.413-3.87-3.448-4.698-.769-.312-1.416-.429-2.235-.547.032-.576.238-1.286.669-1.696.035-.033.155-.112.16-.134-.042-.001-.034-.005-.072.005-1.674.291-2.248 1.977-2.412 3.492-.035.324-.045.643-.063.968m4.252-2.823c.211-.54.728-.617 1.23-.754 1.215-.332 2.51-.147 3.662.325 4.284 1.807 7.545 6.851 9.295 10.993q.499 1.18.893 2.399c.132.415.345 1.063.44 1.48.017.103.051.189.068.286.022.083.106.388.11.456.014.079.014.099.048.168l.016.003c.006-.06-.017-.111-.037-.17-.021-.159-.068-.333-.106-.49-.027-.092-.033-.153-.067-.254a22 22 0 0 0-.422-1.586c-.015-.094-.123-.414-.158-.523a26 26 0 0 0-.484-1.422c-2.578-6.951-7.824-13.21-15.817-12.583l-.21.032c.072.01.129.021.199.01.794.075 1.276.887 1.34 1.63m1.286-.497c.901.266 1.953.714 2.206 1.734.278-.226.55-.434.828-.655.201-.15.6-.462.801-.579a6.3 6.3 0 0 0-2.22-.507c-.463-.018-.914.003-1.367-.01q-.124.008-.248.017"/></svg>